<svg width="100" height="69" viewBox="0 0 100 69" fill="none" xmlns="http://www.w3.org/2000/svg">
<g clip-path="url(#clip0_599_4738)">
<path d="M0.613037 4.56395C0.613037 3.15529 1.08259 2.06588 2.0217 1.29573C2.96081 0.525578 4.30806 0.140503 6.06346 0.140503C7.82022 0.140503 9.18647 0.318961 10.1622 0.675876V3.9156C9.07655 3.48404 7.79036 3.26826 6.30367 3.26826C4.81697 3.26826 4.07362 3.83146 4.07362 4.95784V5.71917C4.07362 6.28237 4.1771 6.71867 4.38406 7.02809C4.59102 7.33751 4.99645 7.65235 5.60035 7.97263L8.84008 9.8047C10.3607 10.6312 11.1213 11.8892 11.122 13.5788V15.2409C11.122 16.6658 10.6053 17.7691 9.57189 18.5508C8.53846 19.3325 7.06398 19.722 5.14844 19.7193C3.23291 19.7193 1.79608 19.5127 0.837975 19.0994V15.8312C2.03968 16.3374 3.40152 16.5905 4.9235 16.5905C6.78204 16.5905 7.71165 16.0083 7.71233 14.8439V14.1111C7.71233 13.6239 7.6136 13.2436 7.41615 12.9701C7.21869 12.6967 6.85736 12.4198 6.33217 12.1396L3.23291 10.451C1.48633 9.49359 0.613037 8.11343 0.613037 6.31053V4.56395Z" fill="white"/>
<path d="M23.9659 0.281982V3.23977H20.3883V19.5788H16.9796V3.23977H13.402V0.281982H23.9659Z" fill="white"/>
<path d="M34.4453 0.281982H37.8255V15.0404C37.8255 16.5047 37.3655 17.6735 36.4454 18.5468C35.5252 19.4201 34.1682 19.8567 32.3741 19.8567C30.58 19.8567 29.2277 19.4201 28.317 18.5468C27.4064 17.6735 26.9515 16.5057 26.9521 15.0434V0.281982H30.3333V14.8735C30.3333 16.1539 31.0183 16.7941 32.3883 16.7941C33.7583 16.7941 34.444 16.1556 34.4453 14.8785V0.281982Z" fill="white"/>
<path d="M42.1401 0.281982H48.2817C49.784 0.281982 50.9436 0.652808 51.7606 1.39446C52.5775 2.13611 52.9847 3.20177 52.982 4.59143V15.0994C52.982 18.085 51.4702 19.5778 48.4465 19.5778H42.1401V0.281982ZM49.6008 4.70441C49.6008 3.63366 49.0186 3.09829 47.8542 3.09829H45.5132V16.6485H47.8542C49.0186 16.6485 49.6008 16.0477 49.6008 14.846V4.70441Z" fill="white"/>
<path d="M56.6492 0.281982H60.0538V19.5788H56.6492V0.281982Z" fill="white"/>
<path d="M63.4767 4.81734C63.4767 3.35304 63.9367 2.1839 64.8568 1.30994C65.777 0.435967 67.1385 -0.000677757 68.9414 7.8962e-07C70.7436 7.8962e-07 72.1098 0.436646 73.0401 1.30994C73.9704 2.18322 74.4352 3.35236 74.4345 4.81734V15.0434C74.4345 16.5077 73.9697 17.6765 73.0401 18.5498C72.1105 19.4231 70.7443 19.8597 68.9414 19.8597C67.1385 19.8597 65.777 19.4231 64.8568 18.5498C63.9367 17.6765 63.4767 16.5077 63.4767 15.0434V4.81734ZM71.0544 4.98732C71.0544 3.70962 70.3548 3.0711 68.9556 3.07178C67.5564 3.07246 66.8569 3.71097 66.8569 4.98732V14.8744C66.8569 16.1521 67.5564 16.7906 68.9556 16.79C70.3548 16.7893 71.0544 16.1508 71.0544 14.8744V4.98732Z" fill="white"/>
<path d="M4.86651 37.0487V44.317H1.48633V25.015H7.17696C8.69758 25.015 9.87588 25.3858 10.7118 26.1275C11.5478 26.8691 11.9658 27.9256 11.9658 29.297V32.5927C11.9658 34.7715 11.177 36.1425 9.59937 36.7057L12.6416 44.3119H8.92354L6.24667 37.0487H4.86651ZM4.86651 27.9219V34.3108H6.83904C7.45923 34.3108 7.90504 34.1751 8.17646 33.9036C8.44822 33.6319 8.58359 33.1851 8.58359 32.5652V29.5504C8.58359 28.4614 8.00139 27.9168 6.83701 27.9168L4.86651 27.9219Z" fill="white"/>
<path d="M15.9088 29.5504C15.9088 28.0861 16.3692 26.9169 17.29 26.043C18.2108 25.169 19.573 24.7324 21.3765 24.733C23.1794 24.733 24.5457 25.1697 25.4753 26.043C26.4049 26.9163 26.8707 28.0854 26.8728 29.5504V39.7764C26.8728 41.2407 26.408 42.4099 25.4784 43.2838C24.5487 44.1578 23.1815 44.5941 21.3765 44.5927C19.573 44.5927 18.2115 44.1564 17.292 43.2838C16.3726 42.4112 15.9115 41.2421 15.9088 39.7764V29.5504ZM23.4875 29.7204C23.4875 28.444 22.7879 27.8055 21.3888 27.8048C19.9896 27.8041 19.29 28.4426 19.29 29.7204V39.6085C19.29 40.8862 19.9896 41.5247 21.3888 41.524C22.7879 41.5233 23.4875 40.8848 23.4875 39.6085V29.7204Z" fill="white"/>
<path d="M39.2902 25.015H42.6429V44.3119H39.2332C36.4728 37.2685 34.8973 33.1698 34.5064 32.0156C34.1156 30.8614 33.8995 30.2273 33.8581 30.1133C33.8581 30.152 33.9052 30.4994 33.9995 31.1555C34.2425 32.8655 34.3643 34.9785 34.3649 37.4945V44.3139H31.0356V25.015H34.5064C36.8915 31.0439 38.2717 34.5934 38.6469 35.6634C39.0221 36.7335 39.2993 37.5552 39.4785 38.1286C39.6569 38.7013 39.7648 39.0345 39.8021 39.1281C39.8021 39.0538 39.7553 38.6966 39.6617 38.0584C39.403 35.9367 39.2806 33.8007 39.2953 31.6634L39.2902 25.015Z" fill="white"/>
<path d="M55.2629 44.3119L54.3326 39.4915H49.9946L49.0928 44.3088H45.8541L49.8542 25.012H54.5575L58.527 44.3088L55.2629 44.3119ZM50.53 36.6212H53.7697L52.1361 28.0573L50.53 36.6212Z" fill="white"/>
<path d="M61.7412 25.015H65.1499V41.4386H70.5871V44.3119H61.7412V25.015Z" fill="white"/>
<path d="M73.6569 25.015H79.7994C81.3017 25.015 82.4613 25.3858 83.2783 26.1275C84.0953 26.8691 84.5024 27.9351 84.4997 29.3255V39.8324C84.4997 42.818 82.9879 44.3108 79.9643 44.3108H73.6538L73.6569 25.015ZM81.1226 29.4374C81.1226 28.3674 80.54 27.8323 79.375 27.8323H77.034V41.3816H79.375C80.5394 41.3816 81.1219 40.7807 81.1226 39.579V29.4374Z" fill="white"/>
<path d="M88.1394 29.5504C88.1394 28.0861 88.5995 26.9169 89.5196 26.043C90.4397 25.169 91.8012 24.7324 93.6041 24.733C95.4077 24.733 96.7739 25.1697 97.7028 26.043C98.6318 26.9163 99.0966 28.0854 99.0973 29.5504V39.7764C99.0973 41.2407 98.6325 42.4099 97.7028 43.2838C96.7732 44.1578 95.407 44.5941 93.6041 44.5927C91.8012 44.5927 90.4397 44.1564 89.5196 43.2838C88.5995 42.4112 88.1394 41.2421 88.1394 39.7764V29.5504ZM95.7171 29.7204C95.7171 28.444 95.0175 27.8055 93.6183 27.8048C92.2192 27.8041 91.5196 28.4426 91.5196 29.7204V39.6085C91.5196 40.8862 92.2192 41.5247 93.6183 41.524C95.0175 41.5233 95.7171 40.8848 95.7171 39.6085V29.7204Z" fill="white"/>
<path d="M4.93775 61.7481V69.0001H1.5647V49.746H7.2421C8.76001 49.746 9.93593 50.1161 10.7699 50.8564C11.6038 51.5967 12.0208 52.6508 12.0208 54.0188V57.3033C12.0208 59.4746 11.2336 60.8422 9.65942 61.4061L12.6946 68.996H8.98461L6.31283 61.7481H4.93775ZM4.93775 52.6417V59.0214H6.9052C7.52268 59.0214 7.96746 58.8857 8.23956 58.6142C8.51166 58.3428 8.64737 57.8977 8.64669 57.2789V54.2712C8.64669 53.1855 8.06585 52.6427 6.90418 52.6427L4.93775 52.6417Z" fill="white"/>
<path d="M15.6279 49.746H24.8748V52.6976H19V57.7868H24.0891V60.7384H19V66.0504H24.8748V69.0021H15.6279V49.746Z" fill="white"/>
<path d="M27.8814 49.746H37.8561V52.5012L31.283 66.1329H37.8876V69.0001H27.741V66.1329L34.2062 52.6132H27.8814V49.746Z" fill="white"/>
<path d="M41.2638 49.746H50.5107V52.6976H44.6368V57.7868H49.7259V60.7384H44.6368V66.0504H50.5107V69.0021H41.2638V49.746Z" fill="white"/>
<path d="M62.2338 49.746H65.5784V69.0001H62.1779C59.4223 61.973 57.848 57.8834 57.4552 56.7313C57.0623 55.5791 56.8469 54.9467 56.8089 54.8341C56.8089 54.8721 56.8557 55.2185 56.9493 55.8732C57.1929 57.5791 57.3147 59.6874 57.3147 62.198V69.0001H53.9987V49.746H57.4592C59.8389 55.7613 61.2164 59.303 61.5916 60.371C61.9668 61.439 62.243 62.2587 62.4201 62.83C62.5986 63.4021 62.7064 63.7345 62.7438 63.8275C62.7438 63.7529 62.6969 63.397 62.6033 62.7598C62.3455 60.6429 62.2234 58.5116 62.2379 56.3791L62.2338 49.746Z" fill="white"/>
<path d="M69.5255 49.746H75.6528C77.1524 49.746 78.3096 50.1161 79.1246 50.8564C79.9395 51.5967 80.3466 52.66 80.346 54.0463V64.5298C80.346 67.5086 78.8375 68.9984 75.8207 68.9991H69.5255V49.746ZM76.9739 54.1592C76.9739 53.0905 76.3931 52.5565 75.2314 52.5572H72.8986V66.0769H75.2314C76.3924 66.0769 76.9732 65.4771 76.9739 64.2774V54.1592Z" fill="white"/>
<path d="M84.0132 49.746H93.2601V52.6976H87.3862V57.7868H92.4753V60.7384H87.3862V66.0504H93.2601V69.0021H84.0132V49.746Z" fill="white"/>
</g>
<defs>
<clipPath id="clip0_599_4738">
<rect width="98.4843" height="69.0001" fill="white" transform="translate(0.613037)"/>
</clipPath>
</defs>
</svg>
